# xmcd CD database file
#
# Track frame offsets:
#	175
#	15625
#	27250
#	42325
#	54175
#	74425
#	85825
#	101800
#	112675
#	127675
#	142300
#	153850
#
# Disc length: 2251 seconds
#
# Revision: 0
# Processed by: cddbd v1.5.1PL2 Copyright (c) Steve Scherf et al.
# Submitted via: CDex 1.51
#
DISCID=9308c90c
DTITLE=Jesse Belvin - Mr. Easy
DYEAR=1900
DGENRE=Jazz
TTITLE0=It's all right with me
TTITLE1=Something happens to me
TTITLE2=What's new
TTITLE3=In the still of the night
TTITLE4=Blues in the night
TTITLE5=Let there be love
TTITLE6=Imagination
TTITLE7=The best is yet to come
TTITLE8=Makin' whoopee!
TTITLE9=Angel eyes
TTITLE10=I'll buy you a star
TTITLE11=The very thought of you
EXTD=
EXTT0=
EXTT1=
EXTT2=
EXTT3=
EXTT4=
EXTT5=
EXTT6=
EXTT7=
EXTT8=
EXTT9=
EXTT10=
EXTT11=
PLAYORDER=
